<?xml version="1.0" encoding="UTF-8" standalone="no"?>
<svg
   xmlns:dc="http://purl.org/dc/elements/1.1/"
   xmlns:cc="http://creativecommons.org/ns#"
   xmlns:rdf="http://www.w3.org/1999/02/22-rdf-syntax-ns#"
   xmlns:svg="http://www.w3.org/2000/svg"
   xmlns="http://www.w3.org/2000/svg"
   xmlns:sodipodi="http://sodipodi.sourceforge.net/DTD/sodipodi-0.dtd"
   xmlns:inkscape="http://www.inkscape.org/namespaces/inkscape"
   aria-hidden="true"
   focusable="false"
   data-prefix="fas"
   data-icon="arrow-circle-right"
   class="svg-inline--fa fa-arrow-circle-right fa-w-16"
   role="img"
   viewBox="0 0 512 512"
   version="1.1"
   id="svg22"
   sodipodi:docname="arrow-circle-right-solid-fix.svg"
   inkscape:version="0.92.4 (5da689c313, 2019-01-14)">
  <metadata
     id="metadata28">
    <rdf:RDF>
      <cc:Work
         rdf:about="">
        <dc:format>image/svg+xml</dc:format>
        <dc:type
           rdf:resource="http://purl.org/dc/dcmitype/StillImage" />
        <dc:title></dc:title>
      </cc:Work>
    </rdf:RDF>
  </metadata>
  <defs
     id="defs26" />
  <sodipodi:namedview
     pagecolor="#ffffff"
     bordercolor="#666666"
     borderopacity="1"
     objecttolerance="10"
     gridtolerance="10"
     guidetolerance="10"
     inkscape:pageopacity="0"
     inkscape:pageshadow="2"
     inkscape:window-width="2037"
     inkscape:window-height="1318"
     id="namedview24"
     showgrid="false"
     inkscape:zoom="1.5947792"
     inkscape:cx="304.63758"
     inkscape:cy="265.1658"
     inkscape:window-x="2613"
     inkscape:window-y="14"
     inkscape:window-maximized="0"
     inkscape:current-layer="svg22" />
  <path
     fill="currentColor"
     d="M256 8c137 0 248 111 248 248S393 504 256 504 8 393 8 256 119 8 256 8zm-28.9 143.6l75.5 72.4H120c-13.3 0-24 10.7-24 24v16c0 13.3 10.7 24 24 24h182.6l-75.5 72.4c-9.7 9.3-9.9 24.8-.4 34.3l11 10.9c9.4 9.4 24.6 9.4 33.9 0L404.3 273c9.4-9.4 9.4-24.6 0-33.9L271.6 106.3c-9.4-9.4-24.6-9.4-33.9 0l-11 10.9c-9.5 9.6-9.3 25.1.4 34.4z"
     id="path20" />
  <path
     style="fill:#ef0b74;stroke-width:0.62704605;fill-opacity:1"
     d="M 245.94606,503.55262 C 220.58113,502.0951 200.15523,498.35487 178.47729,491.19824 150.12965,481.83972 124.543,467.94109 100.7849,448.99585 90.248216,440.59367 71.730599,422.12692 63.433751,411.74731 29.670274,369.50819 10.649756,319.33281 8.7104248,267.38933 7.3859321,231.91382 12.13553,201.17834 23.801731,169.73084 54.324535,87.453352 127.15044,26.862366 213.33967,12.035703 229.7233,9.2173163 234.39877,8.8702136 255.9788,8.8702136 c 21.59352,0 26.16748,0.3401245 42.78944,3.1818704 49.54182,8.469833 95.49224,32.318305 131.57452,68.28775 5.54283,5.525505 12.20066,12.585905 14.79517,15.689783 40.65781,48.639983 61.10554,108.822873 58.19037,171.269203 -2.85708,61.20173 -27.26636,117.54087 -69.87348,161.27518 -40.92262,42.00523 -94.09096,67.81271 -151.98734,73.7734 -8.81325,0.90737 -28.86503,1.58771 -35.52142,1.20522 z m 18.61927,-92.79689 c 3.72852,-1.6224 7.90225,-5.66233 73.07049,-70.7281 55.29812,-55.21117 69.48669,-69.70271 70.96975,-72.48524 2.58569,-4.85125 3.60075,-10.76235 2.65796,-15.4784 -1.70419,-8.52473 1.39839,-5.13066 -71.18661,-77.87503 -36.94234,-37.02343 -68.5076,-68.39444 -70.14503,-69.71333 -4.57183,-3.68244 -9.15619,-5.221083 -15.61018,-5.239243 -4.98636,-0.01404 -5.78887,0.167378 -10.04424,2.270493 -3.89203,1.92354 -5.92005,3.60821 -12.79849,10.63164 -8.79824,8.98368 -10.53119,11.69271 -11.69075,18.27562 -0.82205,4.66689 0.10108,10.41407 2.42164,15.07637 1.81375,3.64409 1.56673,3.39754 47.4198,47.32865 l 31.8352,30.50081 -93.59924,0.31352 -93.59924,0.31353 -3.65937,1.71434 c -7.17244,3.36014 -11.163091,7.71484 -13.542443,14.77783 -1.123949,3.33639 -1.296048,5.38152 -1.296048,15.40135 0,9.81958 0.188697,12.15232 1.256977,15.53916 2.173981,6.89233 7.627374,12.72003 14.419174,15.4089 2.64902,1.04875 8.55344,1.1363 96.47856,1.43064 l 93.65686,0.31352 -37.22271,35.60115 c -20.47249,19.58064 -38.28286,36.93414 -39.5786,38.56333 -6.31069,7.93477 -7.0201,19.47087 -1.70657,27.75129 2.56425,3.99605 17.30956,18.27845 20.36566,19.72631 7.02429,3.32785 14.35156,3.5293 21.12745,0.58089 z"
     id="path4540"
     inkscape:connector-curvature="0" />
  <path
     style="fill:#ef0b74;fill-opacity:1;stroke-width:0.62704605"
     d="M 235.91333,502.62875 C 220.74096,501.2096 201.87197,497.84036 190.13896,494.45529 143.88657,481.11108 106.81867,458.40881 74.169934,423.42992 38.617863,385.34049 16.186104,336.34532 10.112458,283.51639 8.7929315,272.03907 8.6029226,242.65209 9.7779762,231.78509 12.918575,202.74057 19.731494,177.74364 31.482478,152.15024 54.540467,101.93042 95.570715,59.711966 145.61869,34.708743 c 24.53998,-12.259807 47.97088,-19.52685 77.44019,-24.01791 8.75478,-1.3342093 44.99992,-1.9381066 56.30893,-0.9381899 42.36467,3.7457859 84.61486,19.5215419 120.13619,44.8575299 15.54104,11.084817 37.33085,31.41695 48.15839,44.93674 37.76077,47.149847 57.21247,104.058837 55.48716,162.336387 -1.6491,55.70356 -19.90183,105.85206 -54.09007,148.60992 -8.70545,10.88755 -27.68299,29.85784 -38.51382,38.4991 -9.21818,7.35462 -24.61813,17.81168 -33.54697,22.77946 -29.73351,16.54298 -62.16709,26.83912 -95.311,30.25679 -9.2505,0.95387 -37.96741,1.3304 -45.77436,0.60018 z m 27.96421,-91.38156 c 1.75166,-0.76211 5.93329,-4.08051 10.65978,-8.45923 12.37548,-11.46493 132.5139,-132.20652 133.96161,-134.6342 3.79548,-6.36463 4.28253,-15.99937 1.10403,-21.83933 -0.91819,-1.68701 -4.11504,-5.7487 -7.10412,-9.02597 -8.82886,-9.68013 -70.71683,-72.0993 -103.92149,-104.81348 -35.2626,-34.741722 -33.12692,-33.133976 -44.16616,-33.248393 -8.72248,-0.0904 -11.05849,1.212623 -22.31027,12.444593 -11.19409,11.17439 -12.50025,13.50948 -12.47086,22.29472 0.0158,4.73196 0.32269,6.73062 1.49226,9.71922 1.77665,4.53988 5.81788,8.66096 49.84932,50.83423 l 29.41489,28.17357 -41.95582,0.38212 c -23.07569,0.21016 -65.00276,0.42179 -93.17127,0.47028 l -51.21545,0.0882 -4.27812,2.22521 c -5.53966,2.88138 -9.19334,6.49978 -11.682656,11.56981 l -2.001162,4.0758 v 14.42206 c 0,14.35292 0.0081,14.43935 1.690448,18.02923 2.22853,4.75538 7.13028,9.85142 11.62447,12.08524 l 3.61533,1.79699 79.0078,0.49764 c 43.45429,0.2737 85.63882,0.57115 93.74339,0.66099 l 14.73558,0.16335 -7.83807,7.53058 c -4.31095,4.14182 -21.45164,20.60706 -38.09043,36.58943 -29.23547,28.08209 -30.33148,29.21894 -32.6064,33.82151 -2.22493,4.50144 -2.35404,5.09177 -2.35404,10.76355 0,9.00727 1.5664,11.80066 12.7539,22.74433 11.34819,11.10084 14.16553,12.5467 23.61477,12.11907 3.19883,-0.14477 6.06071,-0.68139 7.89874,-1.48109 z"
     id="path4542"
     inkscape:connector-curvature="0" />
  <path
     style="fill:#ffffff;fill-opacity:1;stroke-width:0.62704605"
     d="m 247.7701,411.18524 c -4.93102,-1.57765 -7.97827,-3.88928 -16.38333,-12.42825 -8.8326,-8.97334 -10.67239,-12.2576 -11.03994,-19.70768 -0.29741,-6.02854 0.9201,-10.43004 4.09959,-14.82062 1.3061,-1.80362 19.55443,-19.71413 40.55182,-39.80114 l 38.17709,-36.52183 -94.62477,-0.31353 -94.62478,-0.31352 -4.17814,-2.05707 c -7.12899,-3.50988 -11.957299,-10.14305 -13.092658,-17.98676 -0.780509,-5.39221 -0.700414,-19.73808 0.132107,-23.66177 1.76645,-8.32532 7.176981,-14.73991 15.120991,-17.92706 2.46655,-0.98959 9.91192,-1.09604 96.90332,-1.38547 l 94.23149,-0.31352 -38.62029,-36.99572 c -21.24116,-20.34765 -39.43593,-38.22331 -40.43283,-39.7237 -2.91418,-4.386 -3.91047,-8.23457 -3.6457,-14.08288 0.35735,-7.89312 2.04968,-10.92394 11.35807,-20.34143 8.7674,-8.87015 11.72461,-10.98495 17.39038,-12.43646 5.11874,-1.311356 10.07067,-0.854403 15.26885,1.40898 3.57655,1.55729 8.32317,6.14046 68.02736,65.68493 35.3004,35.20596 66.69066,66.81144 69.75613,70.23441 7.54277,8.42238 8.4008,10.28447 8.4008,18.23122 0,11.11004 5.62019,4.6426 -68.85287,79.23248 -35.93425,35.99062 -67.69544,67.52191 -70.58044,70.06954 -4.27398,3.7742 -5.99914,4.86486 -9.31498,5.88902 -4.96096,1.53229 -9.38321,1.55367 -14.02727,0.0678 z"
     id="path4546"
     inkscape:connector-curvature="0" />
  <path
     style="fill:#ffffff;fill-opacity:1;stroke-width:0.62704605"
     d="m 249.39482,411.78853 c -5.15405,-1.25337 -8.09531,-3.30473 -16.29099,-11.3621 -5.92408,-5.82409 -8.96358,-9.33778 -10.45302,-12.08378 -2.00295,-3.6927 -2.10011,-4.17647 -2.10011,-10.45582 0,-5.9813 0.1664,-6.92838 1.81777,-10.34626 2.0822,-4.3096 -0.89818,-1.31128 46.30801,-46.58666 18.53705,-17.77885 33.70373,-32.55305 33.70373,-32.83157 0,-0.27851 -42.4022,-0.58228 -94.22712,-0.67503 l -94.22711,-0.16864 -4.17825,-2.05707 c -7.00845,-3.45046 -11.813575,-9.87868 -13.056192,-17.46635 -0.825118,-5.03834 -0.76551,-20.12398 0.09555,-24.18218 1.395507,-6.57706 5.067292,-12.01161 10.448562,-15.46476 6.3009,-4.04328 1.07556,-3.84777 102.83926,-3.84777 57.88381,0 92.33172,-0.22184 92.20079,-0.59378 -0.11496,-0.32657 -15.30515,-15.05412 -33.75598,-32.72789 -44.78054,-42.89458 -44.1702,-42.27824 -46.23708,-46.69116 -1.53,-3.26666 -1.73194,-4.43048 -1.73194,-9.98147 0,-9.23894 1.49497,-11.97587 12.35693,-22.62248 5.12825,-5.02658 9.44961,-8.70367 11.23084,-9.55646 4.67077,-2.236193 9.33003,-2.97187 13.87276,-2.190447 8.40403,1.445627 4.98842,-1.658118 74.68811,67.868637 35.47123,35.38322 66.90652,67.01375 69.8562,70.29006 7.09939,7.88555 7.98073,9.85778 7.986,17.87082 0.007,11.11162 5.70667,4.56033 -69.47569,79.86058 -36.27918,36.33606 -68.05455,67.87171 -70.61192,70.07923 -3.59476,3.10298 -5.56603,4.29666 -8.68794,5.26092 -4.05895,1.25369 -8.87655,1.51126 -12.37117,0.66143 z"
     id="path4548"
     inkscape:connector-curvature="0" />
</svg>
