<?xml version="1.0" encoding="UTF-8" standalone="no"?>
<svg
   xmlns:dc="http://purl.org/dc/elements/1.1/"
   xmlns:cc="http://creativecommons.org/ns#"
   xmlns:rdf="http://www.w3.org/1999/02/22-rdf-syntax-ns#"
   xmlns:svg="http://www.w3.org/2000/svg"
   xmlns="http://www.w3.org/2000/svg"
   xmlns:sodipodi="http://sodipodi.sourceforge.net/DTD/sodipodi-0.dtd"
   xmlns:inkscape="http://www.inkscape.org/namespaces/inkscape"
   aria-hidden="true"
   focusable="false"
   data-prefix="fab"
   data-icon="twitter"
   class="svg-inline--fa fa-twitter fa-w-16"
   role="img"
   viewBox="0 0 512 512"
   version="1.1"
   id="svg22"
   sodipodi:docname="twitter-brands.svg"
   inkscape:version="0.92.4 (5da689c313, 2019-01-14)">
  <metadata
     id="metadata28">
    <rdf:RDF>
      <cc:Work
         rdf:about="">
        <dc:format>image/svg+xml</dc:format>
        <dc:type
           rdf:resource="http://purl.org/dc/dcmitype/StillImage" />
        <dc:title></dc:title>
      </cc:Work>
    </rdf:RDF>
  </metadata>
  <defs
     id="defs26" />
  <sodipodi:namedview
     pagecolor="#ffffff"
     bordercolor="#666666"
     borderopacity="1"
     objecttolerance="10"
     gridtolerance="10"
     guidetolerance="10"
     inkscape:pageopacity="0"
     inkscape:pageshadow="2"
     inkscape:window-width="3440"
     inkscape:window-height="1417"
     id="namedview24"
     showgrid="false"
     inkscape:zoom="2.3242188"
     inkscape:cx="256"
     inkscape:cy="256"
     inkscape:window-x="1912"
     inkscape:window-y="-8"
     inkscape:window-maximized="1"
     inkscape:current-layer="svg22" />
  <path
     fill="currentColor"
     d="M459.37 151.716c.325 4.548.325 9.097.325 13.645 0 138.72-105.583 298.558-298.558 298.558-59.452 0-114.68-17.219-161.137-47.106 8.447.974 16.568 1.299 25.34 1.299 49.055 0 94.213-16.568 130.274-44.832-46.132-.975-84.792-31.188-98.112-72.772 6.498.974 12.995 1.624 19.818 1.624 9.421 0 18.843-1.3 27.614-3.573-48.081-9.747-84.143-51.98-84.143-102.985v-1.299c13.969 7.797 30.214 12.67 47.431 13.319-28.264-18.843-46.781-51.005-46.781-87.391 0-19.492 5.197-37.36 14.294-52.954 51.655 63.675 129.3 105.258 216.365 109.807-1.624-7.797-2.599-15.918-2.599-24.04 0-57.828 46.782-104.934 104.934-104.934 30.213 0 57.502 12.67 76.67 33.137 23.715-4.548 46.456-13.32 66.599-25.34-7.798 24.366-24.366 44.833-46.132 57.827 21.117-2.273 41.584-8.122 60.426-16.243-14.292 20.791-32.161 39.308-52.628 54.253z"
     id="path20" />
  <path
     style="fill:#ffffff;fill-opacity:1;stroke-width:0.4302521"
     d="M 146.44233,463.35099 C 109.17755,461.58089 72.569632,452.79428 38.383005,437.41463 26.956843,432.27431 1.1502252,418.20216 1.8557716,417.49661 c 0.1123692,-0.11237 3.4678486,0.0266 7.4566208,0.30893 9.0510296,0.64054 30.4565876,0.28786 38.2382396,-0.63002 26.981668,-3.18258 48.158767,-9.29062 70.983818,-20.47364 12.29621,-6.02447 27.91113,-15.69074 35.52413,-21.99088 l 1.86631,-1.54446 -4.71202,-0.30335 c -12.60835,-0.81168 -25.47713,-4.00162 -36.93522,-9.15559 -17.788329,-8.00138 -33.306584,-21.32842 -44.756771,-38.43701 -4.004128,-5.98287 -12.205874,-23.4709 -11.389242,-24.28452 0.09214,-0.0918 2.394077,0.12286 5.115422,0.47703 6.062945,0.78906 21.186801,0.90712 26.245378,0.20488 5.612398,-0.77912 15.489073,-2.74829 15.489073,-3.08815 0,-0.16674 -1.21008,-0.53919 -2.68907,-0.82765 -3.852119,-0.75133 -14.466352,-4.32502 -19.253785,-6.48253 C 49.160192,276.00199 26.040958,244.39846 21.71841,207.44612 21.097319,202.13657 20.859544,194.9042 21.306076,194.9042 c 0.123048,0 1.958593,0.87131 4.078989,1.93623 8.245788,4.14128 17.282708,7.19519 26.634789,9.00088 5.531519,1.06802 15.062696,2.19784 15.975149,1.89369 0.278282,-0.0928 -1.595827,-1.70826 -4.164686,-3.59 C 54.855736,197.57096 45.061486,187.12593 38.624015,177.26387 20.272296,149.14943 16.56608,112.98556 28.849433,81.887131 c 1.674049,-4.238278 6.455905,-13.907299 6.877916,-13.907299 0.174179,0 1.903189,1.887731 3.842246,4.194958 31.007901,36.8954 72.957925,66.88315 118.548055,84.74343 25.72907,10.07957 53.39543,16.70904 80.24201,19.22777 12.53591,1.17611 13.76891,1.23074 13.75915,0.60963 -0.005,-0.31206 -0.38569,-2.85181 -0.84618,-5.64389 -3.68803,-22.36131 -0.62155,-44.05295 9.01409,-63.76383 5.07505,-10.381631 10.63397,-18.378865 18.43169,-26.516421 17.10424,-17.849656 38.44424,-28.582978 63.33201,-31.853934 5.96495,-0.783963 20.1833,-0.658752 26.4605,0.233018 22.28879,3.166457 42.20919,12.728033 58.07363,27.874721 l 4.57327,4.366357 4.60258,-0.979414 c 19.01104,-4.045463 41.02299,-12.430088 58.1222,-22.13947 1.51238,-0.85878 2.85227,-1.458945 2.97752,-1.3337 0.57916,0.57917 -4.86951,12.948243 -8.43819,19.155565 -7.57171,13.170169 -19.28231,25.620848 -32.26147,34.300318 -2.67001,1.78553 -4.78754,3.31348 -4.70558,3.39545 0.082,0.082 2.84741,-0.24265 6.14538,-0.72138 15.84975,-2.30071 30.27667,-6.0729 45.50931,-11.89929 3.98422,-1.523941 7.34423,-2.670593 7.46673,-2.548118 0.25896,0.258982 -5.55176,8.128978 -10.36955,14.044448 -10.31603,12.66636 -23.47886,25.42122 -36.81272,35.6717 l -4.07487,3.13258 0.12266,10.17769 c 0.6545,54.31638 -14.84881,110.78156 -43.72706,159.26005 -18.46288,30.994 -42.97604,59.16846 -70.43745,80.95805 -54.66664,43.37592 -124.51879,64.95491 -198.83498,61.42487 z"
     id="path3733"
     inkscape:connector-curvature="0" />
</svg>
